<svg xmlns="http://www.w3.org/2000/svg" width="512" height="512" viewBox="0 0 512 512">
  <defs>
    <linearGradient id="bg" x1="0" y1="0" x2="0" y2="1">
      <stop offset="0" stop-color="#15406E"/>
      <stop offset="0.55" stop-color="#0B1E3B"/>
      <stop offset="1" stop-color="#081627"/>
    </linearGradient>
    <linearGradient id="gold" x1="0" y1="0" x2="1" y2="1">
      <stop offset="0" stop-color="#C9A24B"/>
      <stop offset="1" stop-color="#E7CE8B"/>
    </linearGradient>
  </defs>
  <rect width="512" height="512" rx="112" fill="url(#bg)"/>
  <!-- ruhige Wellen -->
  <g stroke="#C9A24B" stroke-opacity="0.28" stroke-width="6" fill="none" stroke-linecap="round">
    <path d="M70 360 q40 -26 80 0 t80 0 t80 0 t80 0"/>
    <path d="M70 400 q40 -26 80 0 t80 0 t80 0 t80 0" stroke-opacity="0.18"/>
  </g>
  <!-- Anker -->
  <g fill="url(#gold)">
    <circle cx="256" cy="120" r="26" fill="none" stroke="url(#gold)" stroke-width="16"/>
    <rect x="246" y="140" width="20" height="170" rx="8"/>
    <rect x="206" y="176" width="100" height="20" rx="10"/>
    <path d="M256 312 C 196 312 156 268 150 214 l 34 8 c 6 36 34 60 72 60 s 66 -24 72 -60 l 34 -8 C 356 268 316 312 256 312 Z"/>
    <path d="M150 214 l -22 26 l 40 -2 Z"/>
    <path d="M362 214 l 22 26 l -40 -2 Z"/>
  </g>
</svg>
